<svg width="900" height="250" xmlns="http://www.w3.org/2000/svg">
  <rect width="900" height="250" fill="#0a0a0a"/>
  
  <g opacity="0.12">
    <circle cx="50" cy="30" r="1" fill="#fff"/>
    <circle cx="120" cy="70" r="0.8" fill="#fff"/>
    <circle cx="200" cy="20" r="1.2" fill="#fff"/>
    <circle cx="310" cy="55" r="0.6" fill="#fff"/>
    <circle cx="400" cy="15" r="1" fill="#fff"/>
    <circle cx="520" cy="40" r="0.8" fill="#fff"/>
    <circle cx="600" cy="25" r="1.1" fill="#fff"/>
    <circle cx="680" cy="60" r="0.7" fill="#fff"/>
    <circle cx="760" cy="18" r="1" fill="#fff"/>
    <circle cx="830" cy="45" r="0.9" fill="#fff"/>
    <circle cx="70" cy="200" r="0.8" fill="#fff"/>
    <circle cx="180" cy="220" r="1" fill="#fff"/>
    <circle cx="350" cy="210" r="0.7" fill="#fff"/>
    <circle cx="500" cy="230" r="1.1" fill="#fff"/>
    <circle cx="650" cy="215" r="0.6" fill="#fff"/>
    <circle cx="800" cy="205" r="0.9" fill="#fff"/>
    <circle cx="870" cy="225" r="1" fill="#fff"/>
    <circle cx="260" cy="190" r="0.5" fill="#fff"/>
    <circle cx="430" cy="205" r="0.8" fill="#fff"/>
    <circle cx="720" cy="195" r="0.6" fill="#fff"/>
    <circle cx="150" cy="130" r="0.4" fill="#fff"/>
    <circle cx="780" cy="130" r="0.5" fill="#fff"/>
  </g>

  <rect x="0" y="0" width="900" height="1" fill="#222"/>
  <rect x="0" y="249" width="900" height="1" fill="#222"/>
  
  <text x="450" y="105" font-family="'Courier New', monospace" font-size="38" font-weight="700" fill="#d0d0d0" text-anchor="middle" letter-spacing="8">RENATO MORAIS</text>
  <text x="450" y="140" font-family="'Courier New', monospace" font-size="13" fill="#555" text-anchor="middle" letter-spacing="4">COMPUTER SCIENCE · BACKEND · QUANTUM COMPUTING</text>
  <text x="450" y="170" font-family="'Courier New', monospace" font-size="11" fill="#383838" text-anchor="middle" letter-spacing="2">Goiânia, BR · github.com/uzoom333</text>
</svg>
